<?xml version="1.0" encoding="UTF-8"?>
<svg width="24" height="24" version="1.1" xmlns="http://www.w3.org/2000/svg">
  <!-- Clock face -->
  <circle cx="12" cy="12" r="11" fill="#f0f0f0" stroke="#333333" stroke-width="1"/>
  
  <!-- Clock center -->
  <circle cx="12" cy="12" r="1.5" fill="#333333"/>
  
  <!-- Hour hand pointing to 10 -->
  <line x1="12" y1="12" x2="9" y2="7" stroke="#333333" stroke-width="2" stroke-linecap="round"/>
  
  <!-- Minute hand pointing to 2 -->
  <line x1="12" y1="12" x2="17" y2="9" stroke="#333333" stroke-width="1.5" stroke-linecap="round"/>
  
  <!-- Hour markers -->
  <circle cx="12" cy="2" r="1" fill="#666666"/>
  <circle cx="22" cy="12" r="1" fill="#666666"/>
  <circle cx="12" cy="22" r="1" fill="#666666"/>
  <circle cx="2" cy="12" r="1" fill="#666666"/>
  
  <!-- Additional hour markers -->
  <circle cx="19" cy="5" r="0.6" fill="#999999"/>
  <circle cx="19" cy="19" r="0.6" fill="#999999"/>
  <circle cx="5" cy="19" r="0.6" fill="#999999"/>
  <circle cx="5" cy="5" r="0.6" fill="#999999"/>
  
  <!-- Small hour ticks -->
  <circle cx="20.5" cy="8.5" r="0.4" fill="#bbbbbb"/>
  <circle cx="20.5" cy="15.5" r="0.4" fill="#bbbbbb"/>
  <circle cx="15.5" cy="20.5" r="0.4" fill="#bbbbbb"/>
  <circle cx="8.5" cy="20.5" r="0.4" fill="#bbbbbb"/>
  <circle cx="3.5" cy="15.5" r="0.4" fill="#bbbbbb"/>
  <circle cx="3.5" cy="8.5" r="0.4" fill="#bbbbbb"/>
  <circle cx="8.5" cy="3.5" r="0.4" fill="#bbbbbb"/>
  <circle cx="15.5" cy="3.5" r="0.4" fill="#bbbbbb"/>
</svg>
