<?xml version="1.0" encoding="UTF-8"?>
<svg width="256" height="256" version="1.1" xmlns="http://www.w3.org/2000/svg">
  <!-- Clock face -->
  <circle cx="128" cy="128" r="120" fill="#f0f0f0" stroke="#333333" stroke-width="4"/>
  
  <!-- Clock center -->
  <circle cx="128" cy="128" r="8" fill="#333333"/>
  
  <!-- Hour hand pointing to 10 -->
  <line x1="128" y1="128" x2="98" y2="78" stroke="#333333" stroke-width="8" stroke-linecap="round"/>
  
  <!-- Minute hand pointing to 2 -->
  <line x1="128" y1="128" x2="188" y2="88" stroke="#333333" stroke-width="6" stroke-linecap="round"/>
  
  <!-- Hour markers -->
  <circle cx="128" cy="16" r="4" fill="#666666"/>
  <circle cx="240" cy="128" r="4" fill="#666666"/>
  <circle cx="128" cy="240" r="4" fill="#666666"/>
  <circle cx="16" cy="128" r="4" fill="#666666"/>
  
  <!-- Additional hour markers -->
  <circle cx="222" cy="54" r="3" fill="#999999"/>
  <circle cx="222" cy="202" r="3" fill="#999999"/>
  <circle cx="54" cy="202" r="3" fill="#999999"/>
  <circle cx="54" cy="54" r="3" fill="#999999"/>
  
  <!-- Small hour ticks -->
  <circle cx="234" cy="86" r="2.5" fill="#bbbbbb"/>
  <circle cx="234" cy="170" r="2.5" fill="#bbbbbb"/>
  <circle cx="170" cy="234" r="2.5" fill="#bbbbbb"/>
  <circle cx="86" cy="234" r="2.5" fill="#bbbbbb"/>
  <circle cx="22" cy="170" r="2.5" fill="#bbbbbb"/>
  <circle cx="22" cy="86" r="2.5" fill="#bbbbbb"/>
  <circle cx="86" cy="22" r="2.5" fill="#bbbbbb"/>
  <circle cx="170" cy="22" r="2.5" fill="#bbbbbb"/>
</svg>
